<svg width="57" height="16" viewBox="0 0 57 16" fill="none" xmlns="http://www.w3.org/2000/svg">
<path d="M1.65234 7.30762C1.10006 7.30762 0.652344 7.75533 0.652344 8.30762C0.652344 8.8599 1.10006 9.30762 1.65234 9.30762V7.30762ZM56.3595 9.01472C56.75 8.6242 56.75 7.99103 56.3595 7.60051L49.9955 1.23655C49.605 0.846025 48.9718 0.846025 48.5813 1.23655C48.1908 1.62707 48.1908 2.26024 48.5813 2.65076L54.2381 8.30762L48.5813 13.9645C48.1908 14.355 48.1908 14.9882 48.5813 15.3787C48.9718 15.7692 49.605 15.7692 49.9955 15.3787L56.3595 9.01472ZM1.65234 9.30762H55.6523V7.30762H1.65234V9.30762Z" fill="#8F8576" fill-opacity="0.5"/>
</svg>
