<svg width="90" height="89" viewBox="0 0 90 89" fill="none" xmlns="http://www.w3.org/2000/svg">
<rect x="44.8853" y="0.146973" width="62.4119" height="62.4119" rx="31.2059" transform="rotate(45 44.8853 0.146973)" fill="#8F8576" fill-opacity="0.5"/>
<path d="M35.7793 42.7992C35.6261 42.9685 35.545 43.1911 35.5535 43.4194C35.562 43.6477 35.6594 43.8636 35.8248 44.0211C35.9903 44.1787 36.2107 44.2653 36.4391 44.2626C36.6676 44.2599 36.8859 44.1681 37.0476 44.0067L44.0019 36.7067L44.0019 53.9133C44.0019 54.1456 44.0942 54.3683 44.2585 54.5326C44.4227 54.6968 44.6455 54.7891 44.8778 54.7891C45.1101 54.7891 45.3329 54.6968 45.4971 54.5326C45.6614 54.3683 45.7537 54.1456 45.7537 53.9133L45.7537 36.7067L52.7068 44.0067C52.867 44.175 53.0874 44.2728 53.3197 44.2786C53.5519 44.2844 53.777 44.1977 53.9453 44.0376C54.1136 43.8775 54.2115 43.6571 54.2173 43.4248C54.2231 43.1925 54.1364 42.9675 53.9763 42.7992L45.7233 34.134C45.5431 33.9447 45.3046 33.8213 45.046 33.7836C44.9339 33.7634 44.8192 33.7638 44.7073 33.7848C44.4495 33.823 44.2119 33.9463 44.0323 34.1351L35.7793 42.7992Z" fill="#DAD1C2"/>
</svg>
