<svg width="56" height="16" viewBox="0 0 56 16" fill="none" xmlns="http://www.w3.org/2000/svg">
<path d="M55 8.91211C55.5523 8.91211 56 8.46439 56 7.91211C56 7.35982 55.5523 6.91211 55 6.91211V8.91211ZM0.292892 7.205C-0.0976334 7.59553 -0.0976334 8.22869 0.292892 8.61922L6.65685 14.9832C7.04738 15.3737 7.68054 15.3737 8.07107 14.9832C8.46159 14.5927 8.46159 13.9595 8.07107 13.569L2.41421 7.91211L8.07107 2.25526C8.46159 1.86473 8.46159 1.23157 8.07107 0.841042C7.68054 0.450517 7.04738 0.450517 6.65685 0.841042L0.292892 7.205ZM55 6.91211L1 6.91211V8.91211L55 8.91211V6.91211Z" fill="#8F8576" fill-opacity="0.5"/>
</svg>
