<svg width="41" height="41" viewBox="0 0 41 41" fill="none" xmlns="http://www.w3.org/2000/svg">
<path d="M8.72 6.61151C7.29919 6.61151 5.93658 7.17592 4.93192 8.18058C3.92727 9.18524 3.36285 10.5479 3.36285 11.9687V28.3972C3.36285 29.818 3.92727 31.1806 4.93192 32.1853C5.93658 33.19 7.29919 33.7544 8.72 33.7544H32.2857C33.7065 33.7544 35.0691 33.19 36.0738 32.1853C37.0784 31.1806 37.6429 29.818 37.6429 28.3972V11.9687C37.6429 10.5479 37.0784 9.18524 36.0738 8.18058C35.0691 7.17592 33.7065 6.61151 32.2857 6.61151H8.72ZM5.50571 11.9687C5.50571 11.1162 5.84436 10.2986 6.44715 9.69581C7.04995 9.09302 7.86752 8.75437 8.72 8.75437H32.2857C33.1382 8.75437 33.9558 9.09302 34.5586 9.69581C35.1613 10.2986 35.5 11.1162 35.5 11.9687V13.0815L20.5 20.7644L5.50571 13.0844V11.9687ZM5.50571 15.4929L20.0114 22.9215C20.1626 22.999 20.3301 23.0394 20.5 23.0394C20.6699 23.0394 20.8374 22.999 20.9886 22.9215L35.5 15.4901V28.3987C35.5 29.2511 35.1613 30.0687 34.5586 30.6715C33.9558 31.2743 33.1382 31.6129 32.2857 31.6129H8.72143C7.86894 31.6129 7.05138 31.2743 6.44858 30.6715C5.84579 30.0687 5.50714 29.2511 5.50714 28.3987L5.50571 15.4929Z" fill="#DAD1C2"/>
</svg>
