<svg width="40" height="41" viewBox="0 0 40 41" fill="none" xmlns="http://www.w3.org/2000/svg">
<path d="M4.16669 20.8972C4.16669 13.4339 4.16669 9.70057 6.48502 7.38224C8.80335 5.0639 12.535 5.0639 20 5.0639C27.4634 5.0639 31.1967 5.0639 33.515 7.38224C35.8334 9.70057 35.8334 13.4322 35.8334 20.8972C35.8334 28.3606 35.8334 32.0939 33.515 34.4122C31.1967 36.7306 27.465 36.7306 20 36.7306C12.5367 36.7306 8.80335 36.7306 6.48502 34.4122C4.16669 32.0939 4.16669 28.3622 4.16669 20.8972Z" stroke="#DAD1C2" stroke-width="2" stroke-linecap="round" stroke-linejoin="round"/>
<path d="M29.18 11.7306H29.1633M27.5 20.8972C27.5 22.8864 26.7098 24.794 25.3033 26.2005C23.8968 27.6071 21.9891 28.3972 20 28.3972C18.0109 28.3972 16.1032 27.6071 14.6967 26.2005C13.2902 24.794 12.5 22.8864 12.5 20.8972C12.5 18.9081 13.2902 17.0004 14.6967 15.5939C16.1032 14.1874 18.0109 13.3972 20 13.3972C21.9891 13.3972 23.8968 14.1874 25.3033 15.5939C26.7098 17.0004 27.5 18.9081 27.5 20.8972Z" stroke="#DAD1C2" stroke-width="2" stroke-linecap="round" stroke-linejoin="round"/>
</svg>
