<svg width="57" height="58" viewBox="0 0 57 58" fill="none" xmlns="http://www.w3.org/2000/svg">
<rect x="29.282" y="0.716309" width="39.1991" height="40.6942" rx="19.5996" transform="rotate(45 29.282 0.716309)" fill="#DFDFDF"/>
<path d="M32.0224 34.6567C32.1847 34.6653 32.3441 34.6102 32.4663 34.5031C32.5886 34.3959 32.6642 34.2453 32.677 34.0832C32.6897 33.9211 32.6387 33.7605 32.5347 33.6355C32.4307 33.5105 32.282 33.4311 32.1202 33.4143L24.9671 32.8489L34.4715 25.1273C34.5998 25.023 34.6814 24.8721 34.6984 24.7076C34.7154 24.5432 34.6664 24.3787 34.5622 24.2504C34.4579 24.1221 34.307 24.0405 34.1426 24.0234C33.9781 24.0064 33.8137 24.0554 33.6853 24.1597L24.181 31.8813L25.093 24.7647C25.1141 24.6007 25.0692 24.435 24.9682 24.3041C24.8672 24.1732 24.7183 24.0878 24.5543 24.0667C24.3903 24.0456 24.2247 24.0905 24.0938 24.1915C23.9629 24.2925 23.8775 24.4414 23.8563 24.6054L22.7736 33.0526C22.7499 33.2371 22.7888 33.4242 22.884 33.584C22.9231 33.6549 22.9749 33.7182 23.0367 33.7705C23.1735 33.8958 23.3482 33.9717 23.5331 33.9861L32.0224 34.6567Z" fill="#2B2928"/>
</svg>
