<svg width="58" height="57" viewBox="0 0 58 57" fill="none" xmlns="http://www.w3.org/2000/svg">
<rect x="30.969" y="56.3569" width="39.1991" height="40.6942" rx="19.5996" transform="rotate(-140.193 30.969 56.3569)" fill="#2B2928"/>
<path d="M25.1677 22.8038C25.0052 22.8099 24.8515 22.8792 24.7394 22.997C24.6274 23.1148 24.5657 23.2717 24.5677 23.4342C24.5696 23.5968 24.635 23.7522 24.7499 23.8672C24.8648 23.9823 25.0201 24.0479 25.1827 24.05L32.3576 23.9656L23.5912 32.5158C23.4729 32.6313 23.4052 32.789 23.4031 32.9543C23.4011 33.1196 23.4648 33.2789 23.5802 33.3973C23.6956 33.5156 23.8533 33.5833 24.0187 33.5854C24.184 33.5874 24.3433 33.5237 24.4617 33.4083L33.228 24.8581L32.964 32.0281C32.9578 32.1933 33.0175 32.3542 33.1299 32.4754C33.2424 32.5966 33.3984 32.6682 33.5636 32.6744C33.7289 32.6806 33.8898 32.6209 34.011 32.5084C34.1322 32.396 34.2038 32.24 34.21 32.0748L34.5237 23.5642C34.5306 23.3783 34.4749 23.1955 34.3656 23.045C34.3202 22.9779 34.263 22.9196 34.1967 22.8731C34.0492 22.7607 33.8683 22.7009 33.6828 22.7033L25.1677 22.8038Z" fill="#DFDFDF"/>
</svg>
